<svg width="111" height="32" viewBox="0 0 111 32" fill="none" xmlns="http://www.w3.org/2000/svg">
<g clip-path="url(#clip0_737_1945)">
<path d="M0.400002 0.905762H3.1441L12.8065 18.9543L22.1983 0.905762H24.9424V28.0756H22.121V6.2621L14.3138 21.1668C14.0304 21.6842 13.7856 22.0466 13.5794 22.2536C13.3733 22.4347 13.1414 22.5252 12.8838 22.5252H12.0335L3.22141 6.2621V28.0756H0.400002V0.905762ZM28 0.905762H41.1021C43.112 0.905762 44.7224 1.47506 45.9334 2.61358C47.1701 3.75212 47.7884 5.25293 47.7884 7.11601V11.1139C47.7884 13.1063 47.1314 14.7236 45.8173 15.9656C44.5033 17.1817 42.7768 17.7899 40.6382 17.7899H30.8599V28.0756H28V0.905762ZM40.5609 15.2281C41.8749 15.2281 42.9314 14.8529 43.7302 14.1025C44.529 13.3263 44.9285 12.3042 44.9285 11.0362V7.03838C44.9285 5.97749 44.5675 5.12359 43.8463 4.47665C43.1505 3.80393 42.2101 3.46748 41.0249 3.46748H30.8599V15.2281H40.5609Z" fill="#111928"/>
<path d="M52.4 14.1885H59.3004C60.3621 14.1885 61.2138 14.4909 61.8561 15.0958C62.5114 15.6875 62.839 16.47 62.839 17.443V18.8632C62.839 19.547 62.6229 20.1519 62.1903 20.6779C61.7709 21.2039 61.1941 21.5853 60.4603 21.822V21.8417C61.2337 22.3017 61.8102 23.1436 62.1903 24.3663L63.2716 27.9958H61.3449L60.2832 24.4452C60.0998 23.8273 59.8049 23.3407 59.3986 22.9858C59.0055 22.6306 58.5532 22.4532 58.0423 22.4532H54.2675V27.9958H52.4V14.1885ZM58.7892 20.7961C59.4445 20.7961 59.9687 20.6186 60.3621 20.2638C60.7681 19.9086 60.9715 19.4418 60.9715 18.8632V17.4233C60.9715 16.9499 60.8141 16.5686 60.4996 16.2793C60.185 15.9899 59.7723 15.8453 59.2611 15.8453H54.2675V20.7961H58.7892ZM68.2096 28.1536C67.2265 28.1536 66.4401 27.9036 65.8503 27.4039C65.2605 26.8913 64.9657 26.2139 64.9657 25.3723V24.7215C64.9657 23.8929 65.2738 23.2288 65.8899 22.7292C66.5059 22.2165 67.3117 21.9599 68.3078 21.9599H69.5463C69.9397 21.9599 70.359 22.0191 70.8047 22.1376C71.2503 22.2558 71.6304 22.4202 71.9449 22.6306V21.1909C71.9449 20.7042 71.7941 20.3164 71.4926 20.0271C71.1911 19.7245 70.798 19.5734 70.3131 19.5734H68.7009C68.203 19.5734 67.8033 19.6915 67.5018 19.9282C67.2005 20.1649 67.0498 20.4742 67.0498 20.8553H65.2409C65.2409 20.0008 65.5554 19.3103 66.1848 18.7843C66.8268 18.2583 67.6658 17.9953 68.7009 17.9953H70.3131C71.3485 17.9953 72.1806 18.2912 72.8099 18.8829C73.4389 19.4615 73.7535 20.2308 73.7535 21.1909V27.9958H72.0431V26.6742C71.7416 27.1213 71.3485 27.4828 70.8636 27.7591C70.3787 28.0221 69.8871 28.1536 69.3892 28.1536H68.2096ZM69.4874 26.6346C70.0641 26.6346 70.5753 26.4705 71.0207 26.1416C71.4663 25.7997 71.7745 25.346 71.9449 24.7807V24.1889C71.6959 23.9655 71.3551 23.7877 70.9225 23.6563C70.4901 23.5248 70.0445 23.4592 69.5856 23.4592H68.3275C67.8688 23.4592 67.4954 23.5774 67.2069 23.814C66.9186 24.0507 66.7745 24.3663 66.7745 24.7608V25.3527C66.7745 25.7471 66.912 26.0627 67.1872 26.2994C67.4758 26.5228 67.8555 26.6346 68.3275 26.6346H69.4874ZM80.3868 27.9958C79.3127 27.9958 78.5326 27.7591 78.0474 27.2857C77.5757 26.8124 77.3398 26.0494 77.3398 24.9975V19.7508H75.6098V18.1531H77.3594V15.1747H79.168V18.1531H81.7237V19.7508H79.168V24.9582C79.168 25.4708 79.2662 25.8393 79.4628 26.0627C79.6728 26.2861 80.007 26.3979 80.4656 26.3979H81.7237V27.9958H80.3868ZM85.3535 16.8513C84.9737 16.8513 84.6656 16.7395 84.4296 16.516C84.1936 16.2793 84.0758 15.9769 84.0758 15.6086C84.0758 15.2404 84.1936 14.9445 84.4296 14.721C84.6656 14.4843 84.9737 14.366 85.3535 14.366C85.7333 14.366 86.0354 14.4843 86.2578 14.721C86.4937 14.9445 86.6119 15.2404 86.6119 15.6086C86.6119 15.9769 86.4937 16.2793 86.2578 16.516C86.0354 16.7395 85.7333 16.8513 85.3535 16.8513ZM84.4296 18.1531H86.2578V27.9958H84.4296V18.1531ZM89.3555 18.1531H91.1052V19.5141C91.3928 19.067 91.7735 18.7054 92.2454 18.4293C92.7297 18.1399 93.2086 17.9953 93.6805 17.9953H94.9779C95.9218 17.9953 96.6813 18.3109 97.2584 18.9421C97.8482 19.5734 98.143 20.4016 98.143 21.4275V27.9958H96.3148V21.4275C96.3148 20.8883 96.1771 20.4542 95.9018 20.1256C95.6266 19.7837 95.2658 19.6127 94.8208 19.6127H93.6017C93.0379 19.6127 92.5267 19.8297 92.0684 20.2638C91.6091 20.6975 91.3143 21.2631 91.1837 21.9599V27.9958H89.3555V18.1531ZM104.179 31.9998C103.249 31.9998 102.475 31.7435 101.86 31.2305C101.256 30.7178 100.922 30.0471 100.857 29.2185H102.685C102.725 29.5737 102.882 29.863 103.157 30.0867C103.432 30.3101 103.773 30.4219 104.179 30.4219H105.85C106.44 30.4219 106.899 30.2115 107.226 29.7907C107.567 29.383 107.738 28.8177 107.738 28.0943V26.7728C107.449 27.1279 107.089 27.4172 106.656 27.6406C106.224 27.8643 105.811 27.9758 105.418 27.9758H104.002C103.295 27.9758 102.666 27.8181 102.115 27.5025C101.565 27.1869 101.138 26.7398 100.837 26.1613C100.536 25.5827 100.385 24.9186 100.385 24.1692V21.9599C100.385 21.1842 100.542 20.4938 100.857 19.8889C101.185 19.284 101.637 18.8172 102.213 18.4884C102.79 18.1597 103.452 17.9953 104.199 17.9953H105.496C105.916 17.9953 106.348 18.1137 106.794 18.3504C107.24 18.5739 107.587 18.8632 107.836 19.2182V18.1531H109.566V28.0943C109.566 29.3041 109.232 30.2575 108.563 30.9545C107.908 31.6513 107.004 31.9998 105.85 31.9998H104.179ZM105.477 26.3783C106.08 26.3783 106.591 26.135 107.01 25.6486C107.443 25.1619 107.685 24.5374 107.738 23.7748V21.7035C107.685 21.0857 107.462 20.5857 107.069 20.2045C106.676 19.81 106.204 19.6127 105.654 19.6127H104.297C103.681 19.6127 103.177 19.8363 102.783 20.2834C102.404 20.7172 102.213 21.2958 102.213 22.0191V24.11C102.213 24.7807 102.39 25.3264 102.744 25.7471C103.098 26.1679 103.544 26.3783 104.081 26.3783H105.477Z" fill="#111928"/>
<path fill-rule="evenodd" clip-rule="evenodd" d="M57.7006 0.139944C57.7458 0.000878032 57.943 0.000878174 57.9882 0.139944L59.1686 3.7658C59.1888 3.82799 59.2469 3.8701 59.3124 3.8701H63.1322C63.2787 3.8701 63.3396 4.05721 63.2211 4.14316L60.1308 6.38406C60.0778 6.42249 60.0556 6.49063 60.0759 6.55282L61.2563 10.1787C61.3015 10.3177 61.1421 10.4334 61.0235 10.3474L57.9333 8.10653C57.8803 8.06809 57.8085 8.06809 57.7555 8.10653L54.6652 10.3474C54.5467 10.4334 54.3873 10.3177 54.4325 10.1787L55.6129 6.55282C55.6331 6.49063 55.611 6.42249 55.558 6.38406L52.4677 4.14316C52.3492 4.05721 52.4101 3.8701 52.5566 3.8701H56.3764C56.4419 3.8701 56.4999 3.82799 56.5202 3.7658L57.7006 0.139944ZM69.1943 0.139944C69.2395 0.000878032 69.4367 0.000878174 69.4819 0.139944L70.6623 3.7658C70.6825 3.82799 70.7406 3.8701 70.8061 3.8701H74.6259C74.7724 3.8701 74.8333 4.05721 74.7148 4.14316L71.6245 6.38406C71.5715 6.42249 71.5493 6.49063 71.5696 6.55282L72.75 10.1787C72.7952 10.3177 72.6358 10.4334 72.5172 10.3474L69.427 8.10653C69.374 8.06809 69.3022 8.06809 69.2492 8.10653L66.1589 10.3474C66.0404 10.4334 65.881 10.3177 65.9262 10.1787L67.1066 6.55282C67.1268 6.49063 67.1047 6.42249 67.0517 6.38406L63.9614 4.14316C63.8429 4.05721 63.9038 3.8701 64.0503 3.8701H67.8701C67.9356 3.8701 67.9936 3.82799 68.0139 3.7658L69.1943 0.139944ZM80.9756 0.139944C80.9304 0.000878174 80.7332 0.000878032 80.688 0.139944L79.5076 3.7658C79.4873 3.82799 79.4293 3.8701 79.3638 3.8701H75.544C75.3975 3.8701 75.3366 4.05721 75.4551 4.14316L78.5454 6.38406C78.5984 6.42249 78.6205 6.49063 78.6003 6.55282L77.4199 10.1787C77.3747 10.3177 77.5341 10.4334 77.6527 10.3474L80.7429 8.10653C80.7959 8.06809 80.8677 8.06809 80.9207 8.10653L84.0109 10.3474C84.1295 10.4334 84.2889 10.3177 84.2437 10.1787L83.0633 6.55282C83.043 6.49063 83.0652 6.42249 83.1182 6.38406L86.2085 4.14316C86.327 4.05721 86.2661 3.8701 86.1196 3.8701H82.2998C82.2343 3.8701 82.1762 3.82799 82.156 3.7658L80.9756 0.139944ZM92.1817 0.139944C92.2269 0.000878032 92.4241 0.000878174 92.4693 0.139944L93.6497 3.7658C93.6699 3.82799 93.728 3.8701 93.7935 3.8701H97.6133C97.7598 3.8701 97.8207 4.05721 97.7022 4.14316L94.6119 6.38406C94.5589 6.42249 94.5367 6.49063 94.557 6.55282L95.7374 10.1787C95.7826 10.3177 95.6232 10.4334 95.5046 10.3474L92.4144 8.10653C92.3614 8.06809 92.2896 8.06809 92.2366 8.10653L89.1464 10.3474C89.0278 10.4334 88.8684 10.3177 88.9136 10.1787L90.094 6.55282C90.1142 6.49063 90.0921 6.42249 90.0391 6.38406L86.9488 4.14316C86.8303 4.05721 86.8912 3.8701 87.0377 3.8701H90.8575C90.923 3.8701 90.981 3.82799 91.0013 3.7658L92.1817 0.139944ZM103.963 0.139944C103.918 0.000878174 103.721 0.000878032 103.675 0.139944L102.495 3.7658C102.475 3.82799 102.417 3.8701 102.351 3.8701H98.5314C98.3849 3.8701 98.324 4.05721 98.4425 4.14316L101.533 6.38406C101.586 6.42249 101.608 6.49063 101.588 6.55282L100.407 10.1787C100.362 10.3177 100.522 10.4334 100.64 10.3474L103.73 8.10653C103.783 8.06809 103.855 8.06809 103.908 8.10653L106.998 10.3474C107.117 10.4334 107.276 10.3177 107.231 10.1787L106.051 6.55282C106.03 6.49063 106.053 6.42249 106.106 6.38406L109.196 4.14316C109.314 4.05721 109.253 3.8701 109.107 3.8701H105.287C105.222 3.8701 105.164 3.82799 105.143 3.7658L103.963 0.139944Z" fill="#FFD203"/>
</g>
<defs>
<clipPath id="clip0_737_1945">
<rect width="110.4" height="32" fill="white"/>
</clipPath>
</defs>
</svg>
